<svg width="600" height="980" xmlns="http://www.w3.org/2000/svg" viewBox="0 0 300 490"><path fill="#e3b426" fill-rule="evenodd" d="M58.2 88.9 L58.8 89.1 L59.4 89.5 L59.9 89.9 L60.4 90.3 L60.8 90.9 L61.2 91.5 L61.6 92.3 L61.9 93.1 L62.1 93.9 L62.5 94.8 L63.0 95.5 L63.6 96.2 L64.4 96.8 L65.3 97.4 L66.3 97.9 L67.4 98.3 L68.6 98.7 L69.8 99.3 L71.0 100.0 L72.1 100.9 L73.2 102.1 L74.2 103.4 L75.1 104.9 L76.1 106.6 L76.9 108.4 L77.8 110.1 L78.8 111.5 L79.8 112.7 L80.8 113.6 L81.8 114.3 L82.8 114.8 L83.9 115.0 L85.1 115.0 L86.1 114.9 L87.0 114.8 L87.8 114.5 L88.5 114.2 L89.0 113.8 L89.5 113.4 L89.9 112.8 L90.1 112.2 L90.5 111.5 L91.0 110.8 L91.7 110.1 L92.5 109.4 L93.5 108.6 L94.6 107.8 L95.8 106.9 L97.2 106.1 L98.4 105.1 L99.5 104.2 L100.4 103.2 L101.1 102.1 L101.7 101.0 L102.2 99.8 L102.4 98.6 L102.6 97.4 L102.8 96.3 L103.2 95.3 L103.7 94.4 L104.3 93.6 L105.1 93.0 L105.9 92.5 L106.9 92.1 L108.1 91.9 L109.1 91.8 L110.0 91.9 L110.8 92.3 L111.5 92.8 L112.0 93.4 L112.5 94.3 L112.9 95.4 L113.1 96.6 L113.5 97.8 L114.0 98.9 L114.5 99.9 L115.2 100.8 L116.0 101.7 L116.9 102.5 L117.9 103.2 L119.1 103.8 L120.0 104.6 L120.9 105.4 L121.6 106.4 L122.2 107.6 L122.6 108.8 L122.9 110.2 L123.0 111.7 L123.0 113.3 L123.0 114.8 L123.1 116.0 L123.3 117.1 L123.5 117.9 L123.7 118.6 L124.0 119.1 L124.3 119.4 L124.7 119.6 L125.2 119.7 L125.8 119.8 L126.6 119.8 L127.4 119.9 L128.4 120.0 L129.6 120.0 L130.8 120.0 L132.2 120.0 L133.4 119.8 L134.5 119.5 L135.4 119.1 L136.1 118.4 L136.7 117.7 L137.2 116.7 L137.4 115.6 L137.6 114.4 L137.8 113.3 L138.0 112.3 L138.3 111.5 L138.7 110.8 L139.1 110.2 L139.6 109.8 L140.2 109.6 L140.8 109.4 L141.5 109.1 L142.3 108.4 L143.3 107.6 L144.3 106.4 L145.3 105.1 L146.5 103.4 L147.8 101.6 L149.2 99.4 L150.5 97.6 L151.7 96.0 L152.8 94.7 L153.9 93.6 L154.9 92.8 L155.8 92.3 L156.6 92.0 L157.4 92.0 L158.0 92.1 L158.6 92.3 L159.1 92.6 L159.4 92.9 L159.7 93.4 L159.9 94.0 L160.0 94.6 L160.0 95.4 L160.1 96.2 L160.4 97.2 L160.8 98.3 L161.4 99.5 L162.1 100.8 L163.0 102.2 L163.9 103.7 L165.1 105.3 L166.0 106.8 L166.9 108.3 L167.6 109.6 L168.2 110.9 L168.6 112.0 L168.9 113.1 L169.0 114.1 L169.0 114.9 L169.1 115.7 L169.3 116.5 L169.6 117.1 L169.9 117.7 L170.4 118.1 L171.0 118.5 L171.6 118.9 L172.4 119.1 L173.0 119.6 L173.6 120.2 L174.1 121.0 L174.4 122.0 L174.7 123.2 L174.9 124.6 L175.0 126.1 L175.0 127.9 L175.2 129.4 L175.5 130.7 L176.0 131.7 L176.7 132.5 L177.6 133.1 L178.6 133.5 L179.8 133.6 L181.2 133.4 L182.4 133.1 L183.6 132.4 L184.6 131.6 L185.4 130.4 L186.2 129.1 L186.8 127.4 L187.3 125.6 L187.7 123.4 L188.2 121.5 L188.7 119.6 L189.4 117.9 L190.1 116.3 L191.0 114.9 L191.9 113.6 L192.9 112.5 L194.1 111.5 L195.2 110.6 L196.4 109.7 L197.5 109.0 L198.7 108.3 L199.9 107.7 L201.1 107.1 L202.4 106.7 L203.6 106.3 L204.7 106.1 L205.7 106.1 L206.4 106.2 L207.1 106.5 L207.5 107.0 L207.8 107.7 L208.0 108.5 L208.0 109.5 L207.9 110.7 L207.6 112.0 L207.2 113.4 L206.6 115.1 L205.9 116.8 L205.0 118.8 L204.1 120.9 L202.9 123.1 L201.9 125.5 L201.1 127.9 L200.3 130.3 L199.7 132.9 L199.2 135.5 L198.8 138.3 L198.6 141.1 L198.4 143.9 L198.2 146.5 L198.0 148.8 L197.6 150.9 L197.2 152.6 L196.6 154.1 L196.0 155.3 L195.4 156.2 L194.6 156.8 L193.9 157.7 L193.3 158.8 L192.8 160.1 L192.3 161.7 L191.8 163.5 L191.4 165.5 L191.1 167.8 L190.9 170.3 L190.5 172.6 L190.0 174.8 L189.3 176.9 L188.5 178.8 L187.5 180.6 L186.4 182.3 L185.2 183.8 L183.8 185.2 L182.6 186.5 L181.6 187.8 L180.7 189.1 L180.0 190.4 L179.5 191.6 L179.2 192.8 L179.0 193.9 L179.0 195.1 L179.1 196.1 L179.2 196.9 L179.5 197.7 L179.8 198.3 L180.2 198.8 L180.6 199.2 L181.2 199.4 L181.8 199.6 L182.4 199.7 L182.8 199.9 L183.2 200.1 L183.5 200.4 L183.8 200.7 L183.9 201.0 L184.0 201.3 L184.0 201.7 L184.2 202.0 L184.7 202.3 L185.3 202.4 L186.2 202.6 L187.3 202.6 L188.6 202.6 L190.1 202.6 L191.9 202.4 L193.5 202.5 L195.1 202.7 L196.7 203.1 L198.1 203.7 L199.5 204.4 L200.7 205.3 L201.9 206.4 L203.1 207.6 L204.0 208.8 L204.9 209.9 L205.6 211.0 L206.2 212.0 L206.6 212.9 L206.9 213.8 L207.0 214.6 L207.0 215.4 L206.9 216.2 L206.8 217.0 L206.6 217.8 L206.4 218.7 L206.1 219.6 L205.7 220.5 L205.3 221.5 L204.8 222.5 L204.1 223.4 L203.4 224.2 L202.6 224.9 L201.7 225.6 L200.6 226.1 L199.5 226.5 L198.2 226.9 L196.8 227.1 L195.5 227.4 L194.3 227.8 L193.2 228.3 L192.1 228.8 L191.1 229.3 L190.2 229.9 L189.4 230.6 L188.6 231.4 L188.0 232.2 L187.4 233.0 L186.9 233.9 L186.6 234.8 L186.3 235.8 L186.1 236.9 L186.0 237.9 L186.0 239.1 L186.2 240.1 L186.5 241.1 L187.0 242.0 L187.7 242.8 L188.6 243.5 L189.6 244.2 L190.8 244.8 L192.2 245.3 L193.4 245.8 L194.5 246.5 L195.5 247.3 L196.3 248.2 L197.0 249.2 L197.5 250.2 L197.9 251.4 L198.1 252.6 L198.5 253.7 L199.0 254.7 L199.5 255.4 L200.2 256.1 L201.0 256.5 L201.9 256.8 L202.9 257.0 L204.1 257.0 L205.1 257.2 L206.0 257.5 L206.8 258.0 L207.5 258.7 L208.0 259.6 L208.5 260.6 L208.9 261.8 L209.1 263.2 L209.5 264.4 L210.1 265.3 L210.9 266.1 L211.8 266.7 L213.0 267.0 L214.2 267.2 L215.7 267.1 L217.3 266.9 L218.8 266.7 L220.0 266.7 L221.1 266.8 L221.9 267.0 L222.6 267.3 L223.1 267.7 L223.4 268.2 L223.6 268.8 L223.8 269.4 L224.1 269.9 L224.5 270.4 L225.0 270.8 L225.6 271.2 L226.3 271.6 L227.1 271.9 L227.9 272.1 L228.7 272.4 L229.4 272.7 L229.9 273.1 L230.3 273.4 L230.7 273.8 L230.9 274.3 L231.0 274.8 L231.0 275.3 L231.2 275.7 L231.7 276.1 L232.3 276.4 L233.2 276.6 L234.3 276.8 L235.6 276.9 L237.1 277.0 L238.9 277.0 L240.5 277.1 L242.0 277.3 L243.4 277.7 L244.6 278.1 L245.8 278.6 L246.8 279.3 L247.6 280.1 L248.4 280.9 L248.9 281.8 L249.2 282.7 L249.3 283.7 L249.2 284.6 L248.8 285.5 L248.3 286.5 L247.5 287.5 L246.5 288.5 L245.5 289.4 L244.5 290.1 L243.5 290.8 L242.5 291.3 L241.5 291.6 L240.5 291.9 L239.5 292.0 L238.5 292.0 L237.6 292.1 L236.9 292.2 L236.3 292.4 L235.8 292.6 L235.4 292.9 L235.1 293.3 L235.0 293.8 L235.0 294.3 L234.9 294.8 L234.7 295.3 L234.3 295.8 L233.9 296.3 L233.4 296.8 L232.7 297.3 L231.9 297.8 L231.1 298.3 L230.3 298.9 L229.5 299.8 L228.9 300.8 L228.3 302.0 L227.9 303.3 L227.5 304.9 L227.1 306.6 L226.9 308.4 L226.5 310.2 L226.1 311.8 L225.6 313.2 L224.9 314.5 L224.2 315.7 L223.4 316.7 L222.5 317.6 L221.5 318.4 L220.5 319.0 L219.5 319.5 L218.5 319.9 L217.5 320.1 L216.5 320.3 L215.5 320.3 L214.5 320.1 L213.5 319.9 L212.6 319.6 L211.9 319.3 L211.3 318.9 L210.8 318.6 L210.4 318.2 L210.1 317.7 L210.0 317.3 L210.0 316.8 L209.8 316.3 L209.3 315.9 L208.6 315.5 L207.7 315.2 L206.5 315.0 L205.1 314.7 L203.4 314.6 L201.6 314.4 L199.8 314.2 L198.0 313.9 L196.4 313.4 L194.8 312.8 L193.4 312.2 L192.0 311.4 L190.6 310.5 L189.4 309.5 L188.1 308.6 L186.7 307.9 L185.3 307.3 L183.9 306.9 L182.4 306.6 L180.9 306.5 L179.3 306.4 L177.7 306.6 L176.1 306.6 L174.5 306.5 L173.0 306.4 L171.5 306.1 L170.0 305.8 L168.6 305.3 L167.2 304.8 L165.8 304.2 L164.3 303.7 L162.6 303.2 L160.8 302.9 L158.8 302.6 L156.6 302.5 L154.3 302.4 L151.8 302.4 L149.2 302.6 L146.8 302.6 L144.5 302.6 L142.4 302.6 L140.6 302.4 L138.9 302.3 L137.4 302.0 L136.1 301.7 L134.9 301.3 L134.0 300.9 L133.1 300.5 L132.4 300.1 L131.8 299.7 L131.4 299.2 L131.1 298.7 L131.0 298.3 L131.0 297.8 L130.8 297.3 L130.4 297.0 L129.8 296.7 L129.0 296.5 L128.0 296.4 L126.7 296.4 L125.3 296.4 L123.7 296.6 L122.3 296.8 L121.0 297.2 L120.0 297.8 L119.2 298.5 L118.6 299.3 L118.2 300.3 L118.0 301.4 L118.0 302.6 L118.1 303.7 L118.3 304.7 L118.7 305.4 L119.1 306.1 L119.6 306.5 L120.3 306.8 L121.1 307.0 L121.9 307.0 L122.8 307.1 L123.5 307.2 L124.2 307.5 L124.8 307.8 L125.4 308.2 L125.9 308.6 L126.3 309.2 L126.7 309.8 L127.2 310.4 L127.9 310.8 L128.8 311.2 L129.8 311.5 L130.9 311.8 L132.2 311.9 L133.7 312.0 L135.3 312.0 L136.9 312.1 L138.4 312.3 L139.8 312.6 L141.2 312.9 L142.5 313.4 L143.8 314.0 L144.9 314.6 L146.1 315.4 L147.3 316.1 L148.6 316.7 L150.1 317.3 L151.7 317.9 L153.3 318.4 L155.1 318.9 L157.0 319.3 L159.0 319.7 L160.8 320.1 L162.3 320.4 L163.6 320.8 L164.7 321.2 L165.5 321.6 L166.1 321.9 L166.4 322.3 L166.6 322.7 L167.0 323.1 L167.7 323.5 L168.7 323.9 L170.0 324.3 L171.6 324.8 L173.5 325.3 L175.8 325.8 L178.3 326.3 L180.5 326.8 L182.4 327.3 L184.1 327.9 L185.4 328.6 L186.5 329.2 L187.3 329.9 L187.9 330.6 L188.1 331.4 L188.5 332.1 L189.0 332.7 L189.6 333.3 L190.4 333.8 L191.3 334.2 L192.3 334.6 L193.4 334.9 L194.6 335.1 L195.8 335.4 L196.8 335.8 L197.7 336.3 L198.5 336.8 L199.2 337.3 L199.8 337.9 L200.3 338.6 L200.7 339.4 L201.2 340.1 L201.8 340.8 L202.5 341.5 L203.3 342.2 L204.2 342.9 L205.2 343.5 L206.4 344.2 L207.6 344.8 L208.7 345.4 L209.7 346.0 L210.4 346.6 L211.1 347.2 L211.5 347.7 L211.8 348.2 L212.0 348.8 L212.0 349.3 L212.1 349.8 L212.4 350.5 L212.8 351.2 L213.4 352.0 L214.1 352.9 L215.0 353.9 L215.9 354.9 L217.1 356.1 L218.0 357.1 L218.9 358.1 L219.6 359.0 L220.2 359.8 L220.6 360.5 L220.9 361.2 L221.0 361.8 L221.0 362.3 L220.9 362.8 L220.7 363.3 L220.4 363.8 L220.1 364.3 L219.6 364.8 L219.0 365.3 L218.4 365.8 L217.6 366.3 L217.0 367.1 L216.6 368.4 L216.3 370.0 L216.2 372.0 L216.2 374.4 L216.4 377.1 L216.8 380.3 L217.3 383.8 L217.5 387.0 L217.6 389.9 L217.5 392.6 L217.2 394.9 L216.7 397.0 L216.0 398.8 L215.1 400.4 L213.9 401.6 L212.9 402.7 L211.9 403.7 L210.9 404.4 L210.1 405.1 L209.3 405.5 L208.5 405.8 L207.8 406.0 L207.2 406.0 L206.6 405.9 L206.2 405.6 L205.8 405.3 L205.5 404.8 L205.2 404.1 L205.1 403.4 L205.0 402.5 L205.0 401.5 L204.9 400.6 L204.8 399.8 L204.6 399.2 L204.4 398.6 L204.1 398.1 L203.7 397.8 L203.3 397.6 L202.8 397.4 L202.3 397.2 L201.9 396.9 L201.5 396.5 L201.2 396.0 L201.0 395.4 L200.7 394.7 L200.6 393.9 L200.4 393.1 L200.3 392.3 L200.0 391.6 L199.8 391.1 L199.5 390.7 L199.1 390.3 L198.7 390.1 L198.3 390.0 L197.8 390.0 L197.3 389.9 L196.9 389.6 L196.6 389.3 L196.4 388.8 L196.2 388.1 L196.1 387.4 L196.0 386.5 L196.0 385.5 L195.8 384.6 L195.5 383.7 L195.0 383.0 L194.3 382.3 L193.4 381.7 L192.4 381.1 L191.2 380.7 L189.8 380.3 L188.5 379.9 L187.3 379.3 L186.3 378.7 L185.3 378.0 L184.3 377.3 L183.5 376.4 L182.8 375.5 L182.2 374.5 L181.4 373.6 L180.5 372.9 L179.4 372.3 L178.1 371.8 L176.7 371.4 L175.2 371.1 L173.4 371.0 L171.6 371.0 L169.9 371.1 L168.5 371.4 L167.3 371.8 L166.4 372.4 L165.7 373.1 L165.2 374.0 L165.0 374.9 L165.0 376.1 L165.1 377.1 L165.2 378.0 L165.5 378.9 L165.8 379.6 L166.2 380.3 L166.6 380.8 L167.2 381.3 L167.8 381.7 L168.4 382.1 L168.8 382.5 L169.2 382.9 L169.5 383.3 L169.8 383.8 L169.9 384.3 L170.0 384.8 L170.0 385.3 L170.1 385.7 L170.3 386.2 L170.7 386.6 L171.1 386.9 L171.6 387.3 L172.3 387.6 L173.1 387.9 L173.9 388.1 L174.8 388.6 L175.6 389.2 L176.5 390.1 L177.3 391.2 L178.1 392.4 L178.9 393.9 L179.6 395.6 L180.4 397.4 L181.1 399.1 L181.9 400.6 L182.6 401.9 L183.4 403.1 L184.1 404.0 L184.9 404.8 L185.6 405.3 L186.4 405.7 L187.1 406.2 L187.8 406.8 L188.4 407.5 L189.1 408.3 L189.7 409.2 L190.2 410.2 L190.8 411.4 L191.3 412.6 L191.7 414.0 L192.0 415.4 L192.3 416.8 L192.5 418.4 L192.6 420.0 L192.6 421.8 L192.6 423.6 L192.4 425.4 L192.2 427.2 L191.9 429.0 L191.4 430.6 L190.8 432.2 L190.2 433.6 L189.4 435.0 L188.5 436.4 L187.5 437.6 L186.4 438.7 L185.3 439.7 L184.1 440.4 L182.9 441.1 L181.6 441.5 L180.2 441.8 L178.8 442.0 L177.3 442.0 L175.9 442.1 L174.6 442.2 L173.5 442.4 L172.5 442.6 L171.6 442.9 L170.9 443.3 L170.3 443.8 L169.8 444.3 L169.2 444.7 L168.5 445.1 L167.7 445.5 L166.8 445.8 L165.8 446.0 L164.8 446.3 L163.6 446.4 L162.4 446.6 L161.1 446.5 L159.8 446.3 L158.4 445.9 L157.1 445.3 L155.7 444.6 L154.2 443.7 L152.8 442.6 L151.3 441.4 L149.8 440.3 L148.5 439.3 L147.2 438.6 L146.0 437.9 L144.9 437.5 L143.9 437.2 L142.9 437.0 L142.1 437.0 L141.3 436.9 L140.7 436.8 L140.2 436.6 L139.8 436.4 L139.6 436.1 L139.4 435.7 L139.4 435.3 L139.6 434.8 L139.8 434.3 L140.1 433.9 L140.6 433.5 L141.2 433.2 L141.8 433.0 L142.6 432.7 L143.5 432.6 L144.5 432.4 L145.4 432.3 L146.3 432.0 L147.1 431.7 L147.9 431.3 L148.6 430.9 L149.2 430.4 L149.8 429.8 L150.3 429.2 L150.8 428.6 L151.5 428.2 L152.2 427.8 L153.0 427.5 L153.9 427.2 L154.9 427.1 L155.9 427.0 L157.1 427.0 L158.0 426.7 L158.9 426.2 L159.6 425.4 L160.2 424.3 L160.6 423.0 L160.9 421.4 L161.0 419.6 L161.0 417.4 L160.8 415.5 L160.5 413.8 L160.1 412.4 L159.4 411.1 L158.7 410.1 L157.7 409.3 L156.6 408.7 L155.4 408.3 L154.3 407.8 L153.3 407.3 L152.6 406.6 L151.9 405.9 L151.5 405.0 L151.2 404.1 L151.0 403.1 L151.0 401.9 L150.9 400.9 L150.6 400.1 L150.2 399.3 L149.6 398.7 L148.9 398.2 L148.0 397.8 L147.1 397.6 L145.9 397.4 L145.0 397.3 L144.1 397.1 L143.4 396.9 L142.8 396.6 L142.4 396.3 L142.1 396.0 L142.0 395.7 L142.0 395.3 L141.7 394.9 L141.1 394.4 L140.1 393.8 L138.9 393.2 L137.3 392.5 L135.4 391.8 L133.3 390.9 L130.8 390.1 L128.5 389.1 L126.5 388.2 L124.7 387.2 L123.1 386.1 L121.8 385.0 L120.7 383.8 L119.8 382.6 L119.2 381.4 L118.4 380.2 L117.3 379.1 L116.1 378.1 L114.7 377.2 L113.0 376.3 L111.2 375.5 L109.1 374.8 L106.9 374.2 L104.8 373.5 L103.0 372.7 L101.4 371.8 L100.1 370.8 L98.9 369.7 L98.0 368.5 L97.3 367.2 L96.8 365.8 L96.1 364.5 L95.4 363.4 L94.5 362.3 L93.5 361.4 L92.4 360.6 L91.1 359.9 L89.8 359.3 L88.3 358.8 L86.9 358.2 L85.6 357.5 L84.5 356.7 L83.5 355.8 L82.6 354.8 L81.9 353.8 L81.3 352.6 L80.8 351.4 L80.2 350.3 L79.5 349.3 L78.8 348.4 L78.0 347.6 L77.1 347.0 L76.1 346.5 L75.1 346.1 L73.9 345.9 L72.9 345.5 L72.1 345.0 L71.3 344.5 L70.7 343.8 L70.2 343.0 L69.8 342.1 L69.6 341.1 L69.4 339.9 L69.2 339.0 L68.8 338.1 L68.2 337.4 L67.5 336.8 L66.7 336.4 L65.7 336.1 L64.6 336.0 L63.4 336.0 L62.2 336.1 L61.2 336.2 L60.3 336.5 L59.5 336.8 L58.8 337.2 L58.2 337.6 L57.7 338.2 L57.3 338.8 L56.9 339.4 L56.4 339.8 L55.8 340.2 L55.2 340.5 L54.5 340.8 L53.8 340.9 L52.9 341.0 L52.1 341.0 L51.3 340.8 L50.5 340.4 L49.9 339.9 L49.3 339.1 L48.9 338.2 L48.5 337.1 L48.1 335.8 L47.9 334.3 L47.5 332.8 L47.0 331.4 L46.5 330.1 L45.8 328.9 L45.0 327.7 L44.1 326.6 L43.1 325.5 L41.9 324.5 L40.9 323.5 L40.1 322.5 L39.3 321.4 L38.7 320.3 L38.2 319.3 L37.8 318.2 L37.6 317.1 L37.4 315.9 L37.2 314.9 L37.0 313.9 L36.6 313.0 L36.2 312.2 L35.6 311.5 L35.0 310.8 L34.4 310.3 L33.6 309.8 L33.0 309.0 L32.5 308.0 L32.0 306.8 L31.7 305.3 L31.5 303.5 L31.4 301.5 L31.4 299.3 L31.6 296.8 L31.6 294.3 L31.6 292.0 L31.5 289.7 L31.3 287.5 L31.0 285.4 L30.7 283.4 L30.3 281.4 L29.8 279.6 L29.3 277.9 L28.9 276.3 L28.6 275.0 L28.4 273.8 L28.2 272.8 L28.1 271.9 L28.0 271.3 L28.0 270.8 L28.1 270.3 L28.3 269.9 L28.6 269.5 L28.9 269.2 L29.4 269.0 L30.0 268.7 L30.6 268.6 L31.4 268.4 L32.0 268.2 L32.6 267.8 L33.1 267.3 L33.4 266.7 L33.7 265.9 L33.9 265.1 L34.0 264.1 L34.0 262.9 L33.9 261.9 L33.8 261.0 L33.6 260.1 L33.4 259.4 L33.1 258.7 L32.7 258.2 L32.3 257.7 L31.8 257.3 L31.3 256.7 L31.0 255.9 L30.7 254.8 L30.5 253.5 L30.4 251.9 L30.4 250.1 L30.4 248.1 L30.6 245.9 L30.8 243.7 L31.2 241.5 L31.7 239.4 L32.3 237.3 L33.1 235.3 L33.9 233.4 L34.9 231.4 L36.1 229.6 L37.1 227.9 L38.1 226.5 L39.1 225.3 L39.9 224.3 L40.8 223.5 L41.5 222.9 L42.2 222.6 L42.8 222.4 L43.4 222.0 L44.1 221.3 L44.7 220.2 L45.3 218.8 L45.9 217.1 L46.6 215.1 L47.2 212.8 L47.8 210.2 L48.5 207.9 L49.2 205.9 L50.0 204.2 L50.8 202.8 L51.6 201.8 L52.5 201.0 L53.5 200.6 L54.5 200.4 L55.4 200.3 L56.2 200.0 L56.8 199.8 L57.4 199.5 L57.9 199.1 L58.2 198.7 L58.4 198.3 L58.6 197.8 L59.0 197.2 L59.8 196.5 L60.9 195.7 L62.3 194.8 L64.1 193.8 L66.2 192.8 L68.6 191.6 L71.4 190.4 L74.3 189.3 L77.3 188.3 L80.6 187.5 L83.9 186.8 L87.5 186.2 L91.2 185.8 L95.0 185.6 L99.0 185.4 L102.5 185.2 L105.5 184.8 L108.0 184.3 L110.0 183.7 L111.5 182.9 L112.5 182.1 L113.0 181.1 L113.0 179.9 L112.5 178.9 L111.5 178.1 L110.0 177.3 L108.0 176.7 L105.5 176.2 L102.5 175.8 L99.0 175.6 L95.0 175.4 L91.5 175.3 L88.4 175.1 L85.7 174.9 L83.5 174.6 L81.8 174.3 L80.5 174.0 L79.7 173.7 L79.3 173.3 L79.0 172.9 L78.7 172.5 L78.4 172.0 L78.1 171.5 L77.9 171.0 L77.7 170.4 L77.6 169.8 L77.4 169.2 L77.4 168.6 L77.5 168.1 L77.7 167.6 L78.0 167.2 L78.5 166.8 L79.0 166.4 L79.6 166.1 L80.4 165.9 L81.0 165.5 L81.6 165.0 L82.1 164.5 L82.4 163.8 L82.7 163.0 L82.9 162.1 L83.0 161.1 L83.0 159.9 L82.9 158.9 L82.7 158.1 L82.3 157.3 L81.9 156.7 L81.4 156.2 L80.7 155.8 L79.9 155.6 L79.1 155.4 L78.1 154.6 L77.0 153.1 L75.9 150.8 L74.6 147.9 L73.3 144.3 L71.8 139.9 L70.3 134.9 L68.7 129.1 L67.1 123.9 L65.5 119.1 L63.9 114.8 L62.3 111.0 L60.8 107.6 L59.3 104.8 L57.8 102.4 L56.3 100.6 L54.9 98.9 L53.8 97.3 L52.9 96.0 L52.1 94.8 L51.6 93.8 L51.2 92.9 L51.0 92.3 L51.0 91.8 L51.1 91.3 L51.2 90.8 L51.5 90.4 L51.8 90.1 L52.2 89.7 L52.6 89.4 L53.2 89.1 L53.8 88.9 L54.4 88.7 L54.8 88.5 L55.2 88.3 L55.5 88.2 L55.8 88.1 L55.9 88.0 L56.0 88.0 L56.0 88.0 L56.1 88.0 L56.2 88.1 L56.5 88.2 L56.8 88.3 L57.2 88.5 L57.6 88.7 Z M151.3 188.4 L150.8 188.6 L150.3 188.8 L149.9 189.2 L149.6 189.7 L149.4 190.3 L149.2 191.1 L149.1 191.9 L149.0 192.9 L149.0 194.1 L149.1 195.1 L149.2 196.1 L149.4 197.0 L149.6 197.8 L149.9 198.5 L150.3 199.2 L150.8 199.8 L151.3 200.3 L152.0 200.7 L153.1 201.1 L154.5 201.4 L156.2 201.6 L158.2 201.8 L160.5 201.9 L163.1 202.0 L165.9 202.0 L168.5 201.9 L170.6 201.6 L172.4 201.2 L173.8 200.6 L174.9 199.9 L175.6 199.0 L176.0 198.1 L176.0 196.9 L175.8 195.9 L175.4 194.9 L174.9 193.9 L174.1 193.1 L173.2 192.3 L172.1 191.5 L170.8 190.8 L169.3 190.2 L167.8 189.6 L166.3 189.2 L164.8 188.8 L163.4 188.5 L162.0 188.2 L160.6 188.1 L159.2 188.0 L157.8 188.0 L156.6 188.0 L155.6 188.0 L154.7 188.0 L154.0 188.0 L153.5 188.0 L153.2 188.0 L153.0 188.0 L153.0 188.0 L152.9 188.0 L152.8 188.0 L152.6 188.1 L152.4 188.2 L152.1 188.2 L151.7 188.3 Z M7.1 189.9 L7.9 190.1 L8.7 190.4 L9.4 190.7 L9.9 191.1 L10.3 191.4 L10.7 191.8 L10.9 192.3 L11.0 192.8 L11.0 193.3 L11.1 193.7 L11.3 194.2 L11.7 194.6 L12.1 194.9 L12.6 195.3 L13.3 195.6 L14.1 195.9 L14.9 196.1 L15.7 196.4 L16.4 196.7 L16.9 197.1 L17.3 197.4 L17.7 197.8 L17.9 198.3 L18.0 198.8 L18.0 199.3 L18.2 199.7 L18.5 200.1 L19.0 200.4 L19.7 200.6 L20.6 200.8 L21.6 200.9 L22.8 201.0 L24.2 201.0 L25.4 201.2 L26.5 201.6 L27.4 202.2 L28.1 203.0 L28.7 204.0 L29.2 205.3 L29.4 206.7 L29.6 208.3 L29.6 209.8 L29.6 211.1 L29.6 212.3 L29.4 213.3 L29.3 214.1 L29.0 214.8 L28.7 215.3 L28.3 215.7 L27.7 216.1 L27.0 216.5 L26.0 216.9 L24.8 217.3 L23.4 217.8 L21.8 218.3 L20.0 218.8 L18.0 219.3 L16.2 219.5 L14.7 219.6 L13.3 219.4 L12.2 219.1 L11.3 218.5 L10.6 217.7 L10.1 216.6 L9.9 215.4 L9.6 214.3 L9.2 213.3 L8.8 212.6 L8.4 211.9 L7.9 211.5 L7.4 211.2 L6.8 211.0 L6.2 211.0 L5.6 210.7 L5.2 210.0 L4.8 208.9 L4.5 207.6 L4.2 205.8 L4.1 203.8 L4.0 201.4 L4.0 198.6 L4.0 196.2 L4.0 194.2 L4.0 192.4 L4.0 191.1 L4.0 190.0 L4.0 189.3 L4.0 189.0 L4.0 189.0 L4.1 189.0 L4.3 189.1 L4.7 189.2 L5.1 189.3 L5.6 189.5 L6.3 189.7 Z M91.8 232.4 L91.2 234.6 L90.7 236.9 L90.2 239.3 L89.9 242.0 L89.6 244.8 L89.5 247.8 L89.4 250.9 L89.4 254.3 L89.6 257.8 L89.8 261.1 L90.1 264.2 L90.6 267.1 L91.2 269.9 L91.8 272.4 L92.6 274.8 L93.5 277.0 L94.5 279.0 L95.5 280.8 L96.5 282.3 L97.6 283.5 L98.7 284.5 L99.7 285.3 L100.8 285.8 L101.9 286.0 L103.1 286.0 L104.0 285.2 L104.9 283.7 L105.6 281.4 L106.2 278.3 L106.6 274.5 L106.9 269.9 L107.0 264.6 L107.0 258.4 L106.9 253.0 L106.8 248.4 L106.5 244.5 L106.2 241.3 L105.8 238.8 L105.4 237.1 L104.8 236.1 L104.2 235.9 L103.6 235.5 L103.2 235.0 L102.8 234.4 L102.5 233.6 L102.2 232.8 L102.1 231.8 L102.0 230.6 L102.0 229.4 L101.9 228.3 L101.6 227.3 L101.3 226.6 L100.8 225.9 L100.1 225.5 L99.4 225.2 L98.5 225.0 L97.5 225.0 L96.6 225.0 L95.9 225.0 L95.3 225.0 L94.8 225.0 L94.4 225.0 L94.1 225.0 L94.0 225.0 L94.0 225.0 L93.9 225.3 L93.8 225.8 L93.5 226.6 L93.2 227.7 L92.8 229.0 L92.4 230.6 Z "/></svg>